<?xml version="1.0" encoding="UTF-8"?>
<svg xmlns="http://www.w3.org/2000/svg" width="900" height="520" viewBox="0 0 900 520">
  <title>Native Australian flowers tile — line art</title>
  <g opacity="0.55" fill="none" stroke="#6b4a32" stroke-width="1.6" stroke-linecap="round" stroke-linejoin="round">

    <!-- ========== RICE FLOWER ========== -->
    <g transform="translate(30,50) scale(0.9)">
      <path d="M118 400 C 112 320, 126 240, 120 160 C 116 110, 126 70, 120 30"/>
      <path d="M118 300 C 90 280, 72 260, 66 230 C 62 200, 72 170, 68 140"/>
      <circle cx="120" cy="30" r="7"/>
      <circle cx="112" cy="22" r="6"/>
      <circle cx="128" cy="22" r="6"/>
      <circle cx="106" cy="34" r="6"/>
      <circle cx="134" cy="34" r="6"/>
      <circle cx="120" cy="16" r="5"/>
      <circle cx="114" cy="42" r="5"/>
      <circle cx="128" cy="44" r="5"/>
      <circle cx="100" cy="26" r="5"/>
      <circle cx="140" cy="26" r="5"/>
      <circle cx="122" cy="8" r="4"/>
      <circle cx="66" cy="140" r="6"/>
      <circle cx="58" cy="132" r="5"/>
      <circle cx="74" cy="134" r="5"/>
      <circle cx="52" cy="144" r="5"/>
      <circle cx="80" cy="146" r="5"/>
      <circle cx="66" cy="124" r="4"/>
      <circle cx="62" cy="152" r="4"/>
      <circle cx="76" cy="154" r="4"/>
      <path d="M120 70 q22 -6 34 -24 q-4 16 -14 26 q-10 8 -20 8 z"/>
      <path d="M118 90 q-24 -4 -36 -22 q2 16 14 26 q12 8 22 6 z"/>
      <path d="M120 120 q22 0 36 -16 q-2 14 -12 22 q-12 8 -24 4 z"/>
      <path d="M118 160 q-22 2 -34 -14 q0 14 10 22 q12 6 24 0 z"/>
      <path d="M120 200 q24 -2 38 -18 q-2 14 -12 22 q-12 8 -26 4 z"/>
      <path d="M118 240 q-20 6 -34 -8 q-2 12 8 20 q12 6 26 -2 z"/>
      <path d="M120 280 q22 0 34 -14 q-2 14 -10 22 q-12 6 -24 2 z"/>
      <path d="M118 320 q-18 4 -32 -8 q0 12 10 18 q10 6 22 0 z"/>
      <path d="M120 360 q20 -2 32 -14 q-2 12 -10 18 q-10 4 -22 2 z"/>
      <path d="M66 170 q-14 -4 -20 -16"/>
      <path d="M68 200 q14 -2 22 -12"/>
    </g>

    <!-- ========== EUCALYPTUS ========== -->
    <g transform="translate(250,40) scale(0.95)">
      <path d="M110 10 C 120 50, 130 90, 140 130 C 150 180, 150 240, 145 300 C 140 350, 130 390, 120 410"/>
      <g transform="translate(100,120)">
        <path d="M10 -20 q-4 10 -6 18"/>
        <path d="M-14 0 a14 10 0 1 0 28 0"/>
        <circle cx="0" cy="0" r="18"/>
        <g stroke-width="1">
          <line x1="0" y1="0" x2="0" y2="-18"/>
          <line x1="0" y1="0" x2="4" y2="-18"/>
          <line x1="0" y1="0" x2="-4" y2="-18"/>
          <line x1="0" y1="0" x2="8" y2="-16"/>
          <line x1="0" y1="0" x2="-8" y2="-16"/>
          <line x1="0" y1="0" x2="12" y2="-14"/>
          <line x1="0" y1="0" x2="-12" y2="-14"/>
          <line x1="0" y1="0" x2="15" y2="-10"/>
          <line x1="0" y1="0" x2="-15" y2="-10"/>
          <line x1="0" y1="0" x2="17" y2="-6"/>
          <line x1="0" y1="0" x2="-17" y2="-6"/>
          <line x1="0" y1="0" x2="18" y2="0"/>
          <line x1="0" y1="0" x2="-18" y2="0"/>
        </g>
      </g>
      <g transform="translate(150,150)">
        <path d="M-6 -24 q4 10 6 20"/>
        <path d="M-15 0 a15 11 0 1 0 30 0"/>
        <circle cx="0" cy="0" r="20"/>
        <g stroke-width="1">
          <line x1="0" y1="0" x2="0" y2="-20"/>
          <line x1="0" y1="0" x2="5" y2="-20"/>
          <line x1="0" y1="0" x2="-5" y2="-20"/>
          <line x1="0" y1="0" x2="10" y2="-18"/>
          <line x1="0" y1="0" x2="-10" y2="-18"/>
          <line x1="0" y1="0" x2="14" y2="-14"/>
          <line x1="0" y1="0" x2="-14" y2="-14"/>
          <line x1="0" y1="0" x2="18" y2="-10"/>
          <line x1="0" y1="0" x2="-18" y2="-10"/>
          <line x1="0" y1="0" x2="20" y2="-4"/>
          <line x1="0" y1="0" x2="-20" y2="-4"/>
        </g>
      </g>
      <path d="M140 160 C 170 200, 190 260, 185 340 C 170 320, 155 290, 148 250 C 142 220, 140 190, 140 160 z"/>
      <path d="M148 180 C 180 230, 200 290, 190 380 C 172 350, 158 310, 152 270 C 148 240, 146 210, 148 180 z"/>
      <path d="M130 200 C 110 240, 102 300, 115 370 C 124 340, 130 300, 132 260 C 134 230, 132 210, 130 200 z"/>
      <path d="M155 230 C 190 270, 205 320, 198 390 C 180 370, 168 340, 162 310 C 156 280, 154 250, 155 230 z"/>
      <path d="M142 170 C 158 230, 170 290, 180 340" stroke-width="0.9"/>
      <path d="M150 190 C 166 240, 180 300, 188 360" stroke-width="0.9"/>
      <path d="M130 210 C 120 260, 118 310, 120 360" stroke-width="0.9"/>
    </g>

    <!-- ========== GREVILLEA ========== -->
    <g transform="translate(490,50) scale(0.9)">
      <path d="M110 410 C 104 340, 120 270, 110 200 C 104 160, 114 120, 108 80"/>
      <path d="M108 190 C 112 150, 104 110, 108 70 C 110 40, 106 20, 108 10" stroke-width="1.2"/>
      <g stroke-width="1.3">
        <path d="M108 190 C 96 184, 86 176, 88 164 C 92 156, 102 158, 104 170"/>
        <path d="M108 190 C 120 184, 130 176, 128 164 C 124 156, 114 158, 112 170"/>
        <path d="M108 170 C 94 164, 82 156, 86 144 C 92 136, 102 138, 104 150"/>
        <path d="M108 170 C 122 164, 134 156, 130 144 C 124 136, 114 138, 112 150"/>
        <path d="M108 150 C 94 144, 82 136, 86 124 C 92 116, 102 118, 104 130"/>
        <path d="M108 150 C 122 144, 134 136, 130 124 C 124 116, 114 118, 112 130"/>
        <path d="M108 130 C 94 124, 82 116, 86 104 C 92 96, 102 98, 104 110"/>
        <path d="M108 130 C 122 124, 134 116, 130 104 C 124 96, 114 98, 112 110"/>
        <path d="M108 110 C 96 104, 86 96, 90 86 C 96 80, 104 82, 106 92"/>
        <path d="M108 110 C 120 104, 130 96, 126 86 C 120 80, 112 82, 110 92"/>
        <path d="M108 90 C 98 86, 90 78, 94 70 C 100 66, 106 68, 108 76"/>
        <path d="M108 90 C 118 86, 126 78, 122 70 C 116 66, 110 68, 108 76"/>
        <path d="M108 70 C 100 66, 94 58, 98 52 C 104 50, 108 52, 108 60"/>
        <path d="M108 70 C 116 66, 122 58, 118 52 C 112 50, 108 52, 108 60"/>
      </g>
      <path d="M108 230 q26 -6 44 -24 q-4 16 -16 26 q-14 8 -28 4 z"/>
      <path d="M108 260 q-26 -4 -42 -22 q2 16 14 24 q14 8 28 4 z"/>
      <path d="M108 290 q28 -4 46 -22 q-4 16 -18 24 q-14 6 -28 4 z"/>
      <path d="M108 320 q-26 -2 -40 -18 q0 14 12 22 q12 6 28 2 z"/>
      <path d="M108 350 q24 -2 38 -18 q-2 14 -12 20 q-12 6 -26 4 z"/>
      <path d="M108 380 q-22 0 -34 -14 q0 12 10 18 q10 4 24 2 z"/>
    </g>

    <!-- ========== WATTLE ========== -->
    <g transform="translate(700,50) scale(0.9)">
      <path d="M115 410 C 108 340, 122 270, 112 200 C 106 150, 118 100, 110 40"/>
      <path d="M112 70 q-12 -8 -20 -22"/>
      <path d="M112 90 q14 -6 22 -18"/>
      <path d="M114 130 q-16 -4 -26 -16"/>
      <path d="M112 160 q16 -2 26 -14"/>
      <g transform="translate(92,48)">
        <circle cx="0" cy="0" r="7"/>
        <circle cx="12" cy="-4" r="7"/>
        <circle cx="-10" cy="-4" r="7"/>
        <circle cx="6" cy="10" r="7"/>
        <circle cx="-8" cy="10" r="7"/>
        <circle cx="20" cy="4" r="6"/>
        <circle cx="-18" cy="4" r="6"/>
        <g stroke-width="0.8">
          <circle cx="0" cy="0" r="3"/>
          <circle cx="12" cy="-4" r="3"/>
          <circle cx="-10" cy="-4" r="3"/>
          <circle cx="6" cy="10" r="3"/>
          <circle cx="-8" cy="10" r="3"/>
        </g>
      </g>
      <g transform="translate(134,72)">
        <circle cx="0" cy="0" r="7"/>
        <circle cx="10" cy="-4" r="6"/>
        <circle cx="-10" cy="-4" r="6"/>
        <circle cx="4" cy="10" r="6"/>
        <circle cx="-8" cy="8" r="6"/>
        <circle cx="16" cy="4" r="5"/>
      </g>
      <g transform="translate(88,114)">
        <circle cx="0" cy="0" r="6"/>
        <circle cx="10" cy="-4" r="6"/>
        <circle cx="-8" cy="-4" r="6"/>
        <circle cx="4" cy="9" r="5"/>
        <circle cx="-6" cy="9" r="5"/>
      </g>
      <g transform="translate(138,146)">
        <circle cx="0" cy="0" r="6"/>
        <circle cx="9" cy="-4" r="5"/>
        <circle cx="-9" cy="-4" r="5"/>
        <circle cx="4" cy="8" r="5"/>
        <circle cx="-6" cy="8" r="5"/>
      </g>
      <path d="M112 200 q28 0 46 -16 q-2 14 -14 22 q-14 8 -32 2 z"/>
      <path d="M112 230 q-28 -2 -44 -18 q-2 16 12 24 q14 6 32 -2 z"/>
      <path d="M112 260 q30 0 48 -16 q-2 16 -16 24 q-16 6 -32 0 z"/>
      <path d="M112 290 q-28 2 -42 -14 q-2 14 10 22 q14 6 32 0 z"/>
      <path d="M112 320 q28 -2 44 -18 q-2 14 -12 22 q-14 6 -32 2 z"/>
      <path d="M112 350 q-26 0 -40 -14 q-2 12 10 20 q12 4 30 0 z"/>
      <path d="M112 380 q24 0 40 -14 q-2 12 -10 18 q-12 4 -30 2 z"/>
    </g>

  </g>
</svg>
