<?xml version="1.0" encoding="UTF-8"?>
<svg xmlns="http://www.w3.org/2000/svg" width="220" height="420" viewBox="0 0 220 420">
  <title>Rice flower / yarrow</title>
  <g fill="none" stroke="#6b4a32" stroke-width="1.6" stroke-linecap="round" stroke-linejoin="round">
    <!-- main stem -->
    <path d="M118 400 C 112 320, 126 240, 120 160 C 116 110, 126 70, 120 30"/>
    <!-- secondary stem -->
    <path d="M118 300 C 90 280, 72 260, 66 230 C 62 200, 72 170, 68 140"/>

    <!-- top cluster of little florets -->
    <g>
      <circle cx="120" cy="30" r="7"/>
      <circle cx="112" cy="22" r="6"/>
      <circle cx="128" cy="22" r="6"/>
      <circle cx="106" cy="34" r="6"/>
      <circle cx="134" cy="34" r="6"/>
      <circle cx="120" cy="16" r="5"/>
      <circle cx="114" cy="42" r="5"/>
      <circle cx="128" cy="44" r="5"/>
      <circle cx="100" cy="26" r="5"/>
      <circle cx="140" cy="26" r="5"/>
      <circle cx="122" cy="8" r="4"/>
      <!-- inner dots -->
      <circle cx="120" cy="30" r="1.2" fill="#6b4a32"/>
      <circle cx="112" cy="22" r="1.2" fill="#6b4a32"/>
      <circle cx="128" cy="22" r="1.2" fill="#6b4a32"/>
    </g>

    <!-- lower side cluster -->
    <g>
      <circle cx="66" cy="140" r="6"/>
      <circle cx="58" cy="132" r="5"/>
      <circle cx="74" cy="134" r="5"/>
      <circle cx="52" cy="144" r="5"/>
      <circle cx="80" cy="146" r="5"/>
      <circle cx="66" cy="124" r="4"/>
      <circle cx="62" cy="152" r="4"/>
      <circle cx="76" cy="154" r="4"/>
    </g>

    <!-- leaves along stem -->
    <path d="M120 70 q22 -6 34 -24 q-4 16 -14 26 q-10 8 -20 8 z"/>
    <path d="M118 90 q-24 -4 -36 -22 q2 16 14 26 q12 8 22 6 z"/>
    <path d="M120 120 q22 0 36 -16 q-2 14 -12 22 q-12 8 -24 4 z"/>
    <path d="M118 160 q-22 2 -34 -14 q0 14 10 22 q12 6 24 0 z"/>
    <path d="M120 200 q24 -2 38 -18 q-2 14 -12 22 q-12 8 -26 4 z"/>
    <path d="M118 240 q-20 6 -34 -8 q-2 12 8 20 q12 6 26 -2 z"/>
    <path d="M120 280 q22 0 34 -14 q-2 14 -10 22 q-12 6 -24 2 z"/>
    <path d="M118 320 q-18 4 -32 -8 q0 12 10 18 q10 6 22 0 z"/>
    <path d="M120 360 q20 -2 32 -14 q-2 12 -10 18 q-10 4 -22 2 z"/>
    <!-- small side stems -->
    <path d="M66 170 q-14 -4 -20 -16"/>
    <path d="M68 200 q14 -2 22 -12"/>
  </g>
</svg>
